<?xml version="1.0" encoding="utf-8"?>
<!-- Generator: Adobe Illustrator 15.0.0, SVG Export Plug-In . SVG Version: 6.00 Build 0)  -->
<!DOCTYPE svg PUBLIC "-//W3C//DTD SVG 1.1//EN" "http://www.w3.org/Graphics/SVG/1.1/DTD/svg11.dtd">
<svg version="1.1" id="Layer_1" xmlns="http://www.w3.org/2000/svg" xmlns:xlink="http://www.w3.org/1999/xlink" x="0px" y="0px"
	 width="300px" height="300px" viewBox="0 0 300 300" enable-background="new 0 0 300 300" xml:space="preserve">
<rect x="6" y="6" fill="#FFFFFF" stroke="#CE181E" stroke-width="12" stroke-miterlimit="10" width="288" height="288"/>
<g>
	<rect x="153" y="28.5" fill="none" width="134.5" height="281"/>
	<path fill="#CE181E" d="M269.375,119c0,9.75-2.125,14.75-8.25,17.625c-6.125,3-14.75,3.375-27,3.375
		c-0.875-5.125-4.125-13.625-6.75-18.375c7.625,0.625,17.375,0.5,20.125,0.5c2.625-0.125,3.625-1,3.625-3.375v-16.625L242,111.25
		c-1.25-2.875-3-6.25-5.125-9.625c-4,10.125-9,18.75-15.375,25.625c-2.875-2.5-10.125-7.5-14-9.625
		c8.375-7.875,14.25-18.875,18.125-32.125c-4.25-5.625-9-11-13.75-15.875c-0.75,4.5-1.625,8.875-2.625,13.125
		c4.125,4.75,7.75,9.25,10.5,12.875l-10.625,13c-1.5-2.25-3.375-4.875-5.625-7.75C199.75,110.75,195,119.25,189,126
		c-1.75-1.625-5.5-4.25-9-6.5V140h-18.25V28.125h107.625V119z M248.25,50.625c-1.25,11.375-3,22-5.375,31.75
		c3.125,4.25,6,8.5,8.25,12.25V45.25H180v19.125l6-6.75c3.25,3.375,6.75,6.875,10.25,10.625c1-6.25,1.75-12.625,2.375-19.375
		l16,1.625c-0.625,5.75-1.375,11.375-2.25,16.75l9-8.875c2.875,2.625,5.75,5.5,8.5,8.5c1-5.75,1.75-11.75,2.25-17.875L248.25,50.625
		z M180,111c5.125-6.625,9-15,11.875-24.5c-3.875-4.625-8-9.25-11.875-13.5V111z"/>
	<path fill="#CE181E" d="M206,232.374l1.75,16.75c-15.875,3.75-33,7.5-46.5,10.5l-3.75-17.875c7-1.125,15.875-2.75,25.25-4.625
		c3-12.25,5.5-30.875,6.5-44.875l16.75,2.625c-2.375,13.125-5.5,28-8.375,39.25L206,232.374z M209.5,189.124h-51.25v-16.625h20.125
		c-1.375-4.875-4-11.25-6.375-16.125l15.625-4.375c3.25,5.5,6.375,12.875,7.75,17.75l-8.625,2.75h22.75V189.124z M166.25,235.499
		c-0.25-10.875-2.25-27.375-4.25-40l13.875-2.625c2.375,12.75,4.375,28.625,5.125,39.625L166.25,235.499z M247,190.124v19.75h23.875
		v59.75H252.25v-5.375h-25.125v5.875H209.5v-60.25h18.75v-58.5H247v21.5h27.625v17.25H247z M252.25,226.749h-25.125v20.625h25.125
		V226.749z"/>
</g>
<g>
	<rect x="22" y="28.5" fill="none" width="134.5" height="281"/>
	<path fill="#CE181E" d="M98.625,70.625c-3.375,2.5-6.75,4.875-10.125,7.25h39V91.5H81.75c-1.125,2.375-2.25,4.875-3.5,7.25h47.125
		c0,0-0.5,4.875-1.125,7.25c-2.75,16-5.875,24.75-10.5,28.875c-4.25,3.75-8.625,4.75-15.5,5.125
		c-4.875,0.375-12.875,0.375-21.5,0.125C76.5,135,74,128,70.625,123.375c8.125,0.625,18.25,0.875,22.25,0.875
		c2.75,0,4.625-0.125,6.375-1.25c1.875-1.25,3.5-4.5,5-9.75H51.5c3.375-5.5,7.375-12.625,10.75-19.625
		c-9.75,5.125-19.75,9.75-29.625,13.625c-1-4.125-4.375-12.375-6.5-16.375c15-5,30.125-11.875,44.25-20.25H30.25V55.5h38.625v-7.375
		h-28.25V33.5h28.25v-12h18v12H111v5.625c4.125-4.25,7.875-8.5,11.25-13l14,8c-5.75,7.5-12.375,14.625-19.625,21.375h24v15.125
		H98.625z M86.875,55.5h5.75c3-2.375,6-4.875,8.875-7.375H86.875V55.5z"/>
	<path fill="#CE181E" d="M94.875,240.624c3.75-1,7.625-2,11.375-3l2.5,15.625c-12.375,3.75-25.625,7.625-36.5,10.75l-3.625-13.375
		c-19.5,12.75-23.75,15.5-26.125,18.125c-1.25-4.375-5.375-12.25-8.25-15.875c3.125-1.875,7-6.25,7-11.875v-34H28v-17.375h30.5
		v48.875l9.625-6c0.75,4.125,2.375,10,3.75,13.875l6.5-1.5v-24.375H69.75v-16.625H103v16.625h-8.125V240.624z M52.5,184.499
		c-4-5.875-13.125-14.625-20-20.75l11.625-11c6.875,5.5,16.375,13.625,20.75,19.25L52.5,184.499z M122.25,191.624
		c1.125,30.25,3.75,52.75,6.375,52.875c1.25,0,2-5.75,2.25-16.5c3,3.875,11.375,9,14.125,10.625
		c-3.5,26.125-11.75,30.625-17.125,30.625c-16-0.125-21.625-28-23.625-77.625H66.125v-17.25h37.625
		c-0.125-6.875-0.25-14.125-0.375-21.75h18.5v7l11.25-6.875c4.25,5,9.25,11.75,11.25,16.375l-8.25,5.25h7.125v17.25H122.25z
		 M130.125,174.374c-2.125-4.125-5.25-9.125-8.375-13.125c0,4.375,0.125,8.75,0.125,13.125H130.125z"/>
</g>
</svg>
